<?xml version="1.0" encoding="utf-8"?>
<!-- Generator: Adobe Illustrator 25.2.0, SVG Export Plug-In . SVG Version: 6.00 Build 0)  -->
<svg version="1.1" xmlns="http://www.w3.org/2000/svg" xmlns:xlink="http://www.w3.org/1999/xlink" x="0px" y="0px"
	 viewBox="0 0 250 250" style="enable-background:new 0 0 250 250;" xml:space="preserve">
<style type="text/css">
	.st0{fill:#63D3E5;}
</style>
<g id="Calque_3_-_copie_2">
	<g>
		<path class="st0" d="M104.09,9.88C69.11,16.25,39.6,38.31,23.12,68.5h114.81L104.09,9.88z"/>
		<path class="st0" d="M214.13,49.76C192.85,24.24,160.82,8,125,8c-1.17,0-2.33,0.02-3.49,0.06l58.35,101.06L214.13,49.76z"/>
		<path class="st0" d="M233.73,164.5c4.7-12.61,7.27-26.25,7.27-40.5c0-21.93-6.09-42.44-16.66-59.93L166.36,164.5H233.73z"/>
		<path class="st0" d="M15.9,84.5C11.44,96.83,9,110.13,9,124c0,22.13,6.2,42.82,16.96,60.41L83.64,84.5H15.9z"/>
		<path class="st0" d="M36.22,198.65C57.5,223.93,89.37,240,125,240c0.65,0,1.29-0.01,1.93-0.02l-57.29-99.23L36.22,198.65z"/>
		<path class="st0" d="M111.07,180.5l33.41,57.86c35.22-5.95,65.04-27.78,81.85-57.86H111.07z"/>
	</g>
</g>
<g id="Calque_5">
	<path class="st0" d="M137.37,100h-23.75c-6.42,0-11.63,5.21-11.63,11.63v23.75c0,6.42,5.21,11.63,11.63,11.63h23.75
		c6.42,0,11.63-5.21,11.63-11.63v-23.75C149,105.21,143.79,100,137.37,100z M140.13,140.79c-1.47,0-2.66-1.19-2.66-2.66
		c0-1.47,1.19-2.66,2.66-2.66c1.47,0,2.66,1.19,2.66,2.66C142.79,139.6,141.6,140.79,140.13,140.79z"/>
	<path class="st0" d="M155.33,111h-6.66c-0.92,0-1.67-0.75-1.67-1.67v-0.66c0-0.92,0.75-1.67,1.67-1.67h6.66
		c0.92,0,1.67,0.75,1.67,1.67v0.66C157,110.25,156.25,111,155.33,111z"/>
	<path class="st0" d="M155.33,139h-6.66c-0.92,0-1.67-0.75-1.67-1.67v-0.66c0-0.92,0.75-1.67,1.67-1.67h6.66
		c0.92,0,1.67,0.75,1.67,1.67v0.66C157,138.25,156.25,139,155.33,139z"/>
	<path class="st0" d="M155.33,129.67h-6.66c-0.92,0-1.67-0.75-1.67-1.67v-0.66c0-0.92,0.75-1.67,1.67-1.67h6.66
		c0.92,0,1.67,0.75,1.67,1.67V128C157,128.92,156.25,129.67,155.33,129.67z"/>
	<path class="st0" d="M155.33,120.33h-6.66c-0.92,0-1.67-0.75-1.67-1.67V118c0-0.92,0.75-1.67,1.67-1.67h6.66
		c0.92,0,1.67,0.75,1.67,1.67v0.66C157,119.59,156.25,120.33,155.33,120.33z"/>
	<path class="st0" d="M102.54,111.76h-6.66c-0.92,0-1.67-0.75-1.67-1.67v-0.66c0-0.92,0.75-1.67,1.67-1.67h6.66
		c0.92,0,1.67,0.75,1.67,1.67v0.66C104.2,111.01,103.46,111.76,102.54,111.76z"/>
	<path class="st0" d="M102.54,139.76h-6.66c-0.92,0-1.67-0.75-1.67-1.67v-0.66c0-0.92,0.75-1.67,1.67-1.67h6.66
		c0.92,0,1.67,0.75,1.67,1.67v0.66C104.2,139.01,103.46,139.76,102.54,139.76z"/>
	<path class="st0" d="M102.54,130.42h-6.66c-0.92,0-1.67-0.75-1.67-1.67v-0.66c0-0.92,0.75-1.67,1.67-1.67h6.66
		c0.92,0,1.67,0.75,1.67,1.67v0.66C104.2,129.68,103.46,130.42,102.54,130.42z"/>
	<path class="st0" d="M102.54,121.09h-6.66c-0.92,0-1.67-0.75-1.67-1.67v-0.66c0-0.92,0.75-1.67,1.67-1.67h6.66
		c0.92,0,1.67,0.75,1.67,1.67v0.66C104.2,120.34,103.46,121.09,102.54,121.09z"/>
	<path class="st0" d="M115,93.67v6.66c0,0.92-0.75,1.67-1.67,1.67h-0.66c-0.92,0-1.67-0.75-1.67-1.67v-6.66
		c0-0.92,0.75-1.67,1.67-1.67h0.66C114.25,92,115,92.75,115,93.67z"/>
	<path class="st0" d="M142,93.67v6.66c0,0.92-0.75,1.67-1.67,1.67h-0.66c-0.92,0-1.67-0.75-1.67-1.67v-6.66
		c0-0.92,0.75-1.67,1.67-1.67h0.66C141.25,92,142,92.75,142,93.67z"/>
	<path class="st0" d="M133,93.67v6.66c0,0.92-0.75,1.67-1.67,1.67h-0.66c-0.92,0-1.67-0.75-1.67-1.67v-6.66
		c0-0.92,0.75-1.67,1.67-1.67h0.66C132.25,92,133,92.75,133,93.67z"/>
	<path class="st0" d="M124,93.67v6.66c0,0.92-0.75,1.67-1.67,1.67h-0.66c-0.92,0-1.67-0.75-1.67-1.67v-6.66
		c0-0.92,0.75-1.67,1.67-1.67h0.66C123.25,92,124,92.75,124,93.67z"/>
	<path class="st0" d="M114,146.67v6.66c0,0.92-0.75,1.67-1.67,1.67h-0.66c-0.92,0-1.67-0.75-1.67-1.67v-6.66
		c0-0.92,0.75-1.67,1.67-1.67h0.66C113.25,145,114,145.75,114,146.67z"/>
	<path class="st0" d="M141,146.67v6.66c0,0.92-0.75,1.67-1.67,1.67h-0.66c-0.92,0-1.67-0.75-1.67-1.67v-6.66
		c0-0.92,0.75-1.67,1.67-1.67h0.66C140.25,145,141,145.75,141,146.67z"/>
	<path class="st0" d="M132,146.67v6.66c0,0.92-0.75,1.67-1.67,1.67h-0.66c-0.92,0-1.67-0.75-1.67-1.67v-6.66
		c0-0.92,0.75-1.67,1.67-1.67h0.66C131.25,145,132,145.75,132,146.67z"/>
	<path class="st0" d="M123,146.67v6.66c0,0.92-0.75,1.67-1.67,1.67h-0.66c-0.92,0-1.67-0.75-1.67-1.67v-6.66
		c0-0.92,0.75-1.67,1.67-1.67h0.66C122.25,145,123,145.75,123,146.67z"/>
</g>
</svg>
